# Blender v3.2.0 OBJ File: ''
# www.blender.org
mtllib me.mtl
v -1.000000 -0.095189 -1.000000
v 1.000000 -0.095189 -1.000000
v -1.000000 0.095189 -1.000000
v 1.000000 0.095189 -1.000000
v -1.000000 -0.095189 1.000000
v 1.000000 -0.095189 1.000000
v -1.000000 0.095189 1.000000
v 1.000000 0.095189 1.000000
vt 0.813333 0.415498
vt 0.956337 0.415498
vt 0.956337 0.558502
vt 0.813333 0.558502
vt 0.012028 0.554362
vt 0.446599 0.554362
vt 0.446599 0.988933
vt 0.012028 0.988933
vt 0.670329 0.129490
vt 0.813333 0.129490
vt 0.813333 0.272494
vt 0.670329 0.272494
vt 0.527325 0.415498
vt 0.670329 0.415498
vt 0.670329 0.558502
vt 0.527325 0.558502
vn -1.0000 0.0000 -0.0000
vn 0.0000 1.0000 0.0000
vn -0.0000 0.0000 1.0000
vn 1.0000 0.0000 0.0000
vn 0.0000 0.0000 -1.0000
vn 0.0000 -1.0000 0.0000
usemtl Material
s off
f 1/1/1 5/2/1 7/3/1 3/4/1
f 4/5/2 3/6/2 7/7/2 8/8/2
f 8/9/3 7/10/3 5/11/3 6/12/3
f 6/13/4 2/14/4 4/15/4 8/16/4
f 2/14/5 1/1/5 3/4/5 4/15/5
f 6/12/6 5/11/6 1/1/6 2/14/6
