# Blender v3.2.0 OBJ File: ''
# www.blender.org
mtllib wall-cube.mtl
v -0.200000 -1.000000 1.000000
v -0.200000 -1.000000 -1.000000
v -0.200000 1.000000 1.000000
v -0.200000 1.000000 -1.000000
v 0.200000 -1.000000 1.000000
v 0.200000 -1.000000 -1.000000
v 0.200000 1.000000 1.000000
v 0.200000 1.000000 -1.000000
vt 0.885786 0.000000
vt 0.780881 0.000000
vt 0.780881 0.333333
vt 0.885786 0.333333
vt 0.217048 0.000000
vt 0.217048 0.333333
vt 0.116285 0.333333
vt 0.116285 0.000000
vt 0.333333 0.333333
vt 0.333333 0.666667
vt 0.000000 0.666667
vt 0.000000 0.333333
vt 0.461558 0.000000
vt 0.538442 0.000000
vt 0.538442 0.333333
vt 0.461558 0.333333
vt 0.666667 0.333333
vt 0.666667 0.666667
vt 0.333333 0.666667
vt 0.333333 0.333333
vt 0.218451 0.666667
vt 0.218451 1.000000
vt 0.114882 1.000000
vt 0.114882 0.666667
vn 0.0000 0.0000 1.0000
vn 0.0000 1.0000 0.0000
vn 1.0000 0.0000 0.0000
vn 0.0000 0.0000 -1.0000
vn -1.0000 0.0000 0.0000
vn 0.0000 -1.0000 0.0000
usemtl Material
s off
f 1/1/1 5/2/1 7/3/1 3/4/1
f 4/5/2 3/6/2 7/7/2 8/8/2
f 8/9/3 7/10/3 5/11/3 6/12/3
f 6/13/4 2/14/4 4/15/4 8/16/4
f 2/17/5 1/18/5 3/19/5 4/20/5
f 6/21/6 5/22/6 1/23/6 2/24/6
